<svg width="24" height="24" viewBox="0 0 24 24" fill="none" xmlns="http://www.w3.org/2000/svg">
<g clip-path="url(#clip0_35_890)">
<path d="M1.17161 23.9997C0.939799 23.9997 0.713187 23.931 0.520433 23.8022C0.327678 23.6735 0.177443 23.4904 0.0887282 23.2763C1.37109e-05 23.0621 -0.0231937 22.8265 0.0220414 22.5991C0.0672766 22.3718 0.178922 22.1629 0.342856 21.999L21.9991 0.342791C22.2189 0.122993 22.517 -0.000488281 22.8279 -0.000488281C23.1387 -0.000488281 23.4368 0.122993 23.6566 0.342791C23.8764 0.562589 23.9999 0.8607 23.9999 1.17154C23.9999 1.48238 23.8764 1.78049 23.6566 2.00029L2.00036 23.6565C1.89162 23.7655 1.76244 23.8519 1.62021 23.9108C1.47799 23.9697 1.32554 23.9999 1.17161 23.9997Z" fill="url(#paint0_linear_35_890)"/>
<path d="M22.8279 23.9997C22.674 23.9999 22.5215 23.9697 22.3793 23.9108C22.2371 23.8519 22.1079 23.7655 21.9992 23.6565L0.342913 2.00029C0.123115 1.78049 -0.000366211 1.48238 -0.000366211 1.17154C-0.000366211 0.8607 0.123115 0.562589 0.342913 0.342791C0.562711 0.122993 0.860822 -0.000488281 1.17166 -0.000488281C1.4825 -0.000488281 1.78062 0.122993 2.00041 0.342791L23.6567 21.999C23.8206 22.1629 23.9322 22.3718 23.9775 22.5991C24.0227 22.8265 23.9995 23.0621 23.9108 23.2763C23.8221 23.4904 23.6718 23.6735 23.4791 23.8022C23.2863 23.931 23.0597 23.9997 22.8279 23.9997Z" fill="url(#paint1_linear_35_890)"/>
</g>
<defs>
<linearGradient id="paint0_linear_35_890" x1="11.9997" y1="-0.000488281" x2="11.9997" y2="23.9997" gradientUnits="userSpaceOnUse">
<stop stop-color="#FF0000"/>
<stop offset="1" stop-color="#C70000"/>
</linearGradient>
<linearGradient id="paint1_linear_35_890" x1="11.9998" y1="-0.000488281" x2="11.9998" y2="23.9997" gradientUnits="userSpaceOnUse">
<stop stop-color="#FF0000"/>
<stop offset="1" stop-color="#C70000"/>
</linearGradient>
<clipPath id="clip0_35_890">
<rect width="24" height="24" fill="white"/>
</clipPath>
</defs>
</svg>
