<svg width="150" height="60" viewBox="0 0 150 60" fill="none" xmlns="http://www.w3.org/2000/svg">
<path d="M38.2758 45.609C38.7971 45.0877 38.7971 44.245 38.2758 43.7237L24.5521 30L38.2758 16.2762C38.7971 15.7549 38.7971 14.9123 38.2758 14.391C37.7545 13.8697 36.9118 13.8697 36.3905 14.391L21.7241 29.0574C21.4641 29.3173 21.3334 29.6587 21.3334 30C21.3334 30.3414 21.4641 30.6827 21.7241 30.9427L36.3905 45.6091C36.9118 46.1303 37.7545 46.1303 38.2758 45.609Z" fill="#FF0000"/>
<circle cx="30" cy="30" r="29" stroke="#FF0000" stroke-width="2"/>
<path d="M111.724 14.391C111.203 14.9123 111.203 15.755 111.724 16.2763L125.448 30L111.724 43.7238C111.203 44.2451 111.203 45.0877 111.724 45.609C112.246 46.1303 113.088 46.1303 113.609 45.609L128.276 30.9426C128.536 30.6827 128.667 30.3413 128.667 30C128.667 29.6586 128.536 29.3173 128.276 29.0573L113.609 14.3909C113.088 13.8697 112.246 13.8697 111.724 14.391Z" fill="#FF0000"/>
<circle cx="120" cy="30" r="29" transform="rotate(-180 120 30)" stroke="#FF0000" stroke-width="2"/>
</svg>
