<svg width="100" height="40" viewBox="0 0 100 40" fill="none" xmlns="http://www.w3.org/2000/svg">
<g clip-path="url(#clip0_0_191)">
<path d="M20.005 0H19.995C8.9675 0 0 8.97 0 20C0 24.375 1.41 28.43 3.8075 31.7225L1.315 39.1525L9.0025 36.695C12.165 38.79 15.9375 40 20.005 40C31.0325 40 40 31.0275 40 20C40 8.9725 31.0325 0 20.005 0Z" fill="#FF0000"/>
<path d="M31.6424 28.2425C31.1599 29.605 29.2449 30.735 27.7174 31.065C26.6724 31.2875 25.3074 31.465 20.7124 29.56C14.8349 27.125 11.0499 21.1525 10.7549 20.765C10.4724 20.3775 8.37988 17.6025 8.37988 14.7325C8.37988 11.8625 9.83738 10.465 10.4249 9.86496C10.9074 9.37246 11.7049 9.14746 12.4699 9.14746C12.7174 9.14746 12.9399 9.15996 13.1399 9.16996C13.7274 9.19496 14.0224 9.22996 14.4099 10.1575C14.8924 11.32 16.0674 14.19 16.2074 14.485C16.3499 14.78 16.4924 15.18 16.2924 15.5675C16.1049 15.9675 15.9399 16.145 15.6449 16.485C15.3499 16.825 15.0699 17.085 14.7749 17.45C14.5049 17.7675 14.1999 18.1075 14.5399 18.695C14.8799 19.27 16.0549 21.1875 17.7849 22.7275C20.0174 24.715 21.8274 25.35 22.4749 25.62C22.9574 25.82 23.5324 25.7725 23.8849 25.3975C24.3324 24.915 24.8849 24.115 25.4474 23.3275C25.8474 22.7625 26.3524 22.6925 26.8824 22.8925C27.4224 23.08 30.2799 24.4925 30.8674 24.785C31.4549 25.08 31.8424 25.22 31.9849 25.4675C32.1249 25.715 32.1249 26.8775 31.6424 28.2425Z" fill="white"/>
</g>
<g clip-path="url(#clip1_0_191)">
<circle cx="80" cy="20" r="17" fill="white"/>
<path d="M80 40C91.0483 40 100 31.0483 100 20C100 8.95167 91.0483 0 80 0C68.9517 0 60 8.95167 60 20C60 31.0483 68.9517 40 80 40ZM69.1517 19.5667L88.435 12.1317C89.33 11.8083 90.1117 12.35 89.8217 13.7033L89.8233 13.7017L86.54 29.17C86.2967 30.2667 85.645 30.5333 84.7333 30.0167L79.7333 26.3317L77.3217 28.655C77.055 28.9217 76.83 29.1467 76.3133 29.1467L76.6683 24.0583L85.935 15.6867C86.3383 15.3317 85.845 15.1317 85.3133 15.485L73.8617 22.695L68.925 21.155C67.8533 20.815 67.83 20.0833 69.1517 19.5667Z" fill="#FF0000"/>
</g>
<defs>
<clipPath id="clip0_0_191">
<rect width="40" height="40" fill="white"/>
</clipPath>
<clipPath id="clip1_0_191">
<rect width="40" height="40" fill="white" transform="translate(60)"/>
</clipPath>
</defs>
</svg>
